# xmcd
#
# Track frame offsets:
#  150
#  10755
#  23285
#  33402
#  46800
#  59927
#  74182
#  84065
#  94130
#  105447
#  117837
#  133325
#  145065
#  159852
#  169757
#  183550
#  196920
#  210695
#
# Disc length: 2910 seconds
#
# Revision: 0
# Processed by: cddbd v1.5.2PL0 Copyright (c) Steve Scherf et al.
# Submitted via: Collectorz.com_Music_Collector 6.10
#
DISCID=f10b5c12
DTITLE=Carl Perkins - Best of Carl Perkins
DYEAR=1900
DGENRE=Country
TTITLE0=Blue Suede Shoes
TTITLE1=Your True Love
TTITLE2=Matchbox
TTITLE3=That's Right
TTITLE4=Boppin' The Blues
TTITLE5=Tennessee
TTITLE6=All Mama's Children
TTITLE7=Movie Magg
TTITLE8=Dixie Fried
TTITLE9=Gone, Gone, Gone
TTITLE10=The Hurt Put On By You
TTITLE11=Sing A Song
TTITLE12=Georgia Court Room
TTITLE13=This Old House
TTITLE14=Every Road
TTITLE15=Hallelujah Special
TTITLE16=Turn Around
TTITLE17=Glad All Over
EXTD=
EXTT0=
EXTT1=
EXTT2=
EXTT3=
EXTT4=
EXTT5=
EXTT6=
EXTT7=
EXTT8=
EXTT9=
EXTT10=
EXTT11=
EXTT12=
EXTT13=
EXTT14=
EXTT15=
EXTT16=
EXTT17=
PLAYORDER=
